<?xml version="1.0" encoding="utf-8"?>
<!-- Generator: Adobe Illustrator 27.0.0, SVG Export Plug-In . SVG Version: 6.00 Build 0)  -->
<svg version="1.1" id="Livello_1" xmlns="http://www.w3.org/2000/svg" xmlns:xlink="http://www.w3.org/1999/xlink" x="0px" y="0px"
	 viewBox="0 0 238.1 238.1" style="enable-background:new 0 0 238.1 238.1;" xml:space="preserve">
<g>
	<path d="M26.5,112.5c-14.5,0-26.4-11.2-26.4-25V25c0-13.8,11.7-25,26.4-25h59.3c14.5,0,26.4,11.2,26.4,25v62.4
		c0,13.8-11.7,25-26.4,25H26.5z M40.3,27.8c-4.1,0-7.6,3.3-7.6,7.2v42.4c0,4,3.5,7.2,7.6,7.2H72c4.1,0,7.6-3.3,7.6-7.2V35.2
		c0-4-3.5-7.2-7.6-7.2H40.3V27.8z"/>
	<path d="M205.4,112.5V83.3c0-4-3.5-7.2-7.6-7.2h-39.5v36.4h-32.4V0.2h85.7c14.5,0,26.4,11.2,26.4,25v24c0,4.8-2.4,9.3-6.6,12.1
		l-1.6,1l1.6,1c4.1,2.8,6.6,7.2,6.6,12.1v37.3h-32.6V112.5z M158.3,51.4h39.5c4.1,0,7.6-3.3,7.6-7.2v-9c0-4-3.5-7.2-7.6-7.2h-39.5
		V51.4z"/>
	<path d="M0.3,238.2V125.9H86c14.5,0,26.4,11.2,26.4,25v62.4c0,13.8-11.7,25-26.4,25H0.3V238.2z M32.7,210.5h39.5
		c4.1,0,7.6-3.3,7.6-7.2v-42.3c0-4-3.5-7.2-7.6-7.2H32.7V210.5z"/>
	<path d="M152.1,238.2c-14.5,0-26.4-11.2-26.4-25v-11.9h32.4v1.7c0,4,3.5,7.2,7.6,7.2h31.7c4.1,0,7.6-3.3,7.6-7.2v-3.5
		c0-2.2-1.7-4-4-4.3l-63.7-7.2c-6.9-0.7-11.9-6.2-11.9-12.8v-24.8c0-13.8,11.7-25,26.4-25h59.3c14.5,0,26.4,11.2,26.4,25v11.9h-32.4
		v-1.7c0-4-3.5-7.2-7.6-7.2h-31.7c-4.1,0-7.6,3.3-7.6,7.2v3.3c0,2.2,1.7,4,4,4.3l63.7,7.6c6.9,0.7,11.9,6.2,11.9,12.8v24.8
		c0,13.8-11.7,25-26.4,25h-59.3V238.2z"/>
</g>
</svg>
