<?xml version="1.0" encoding="utf-8"?>
<!-- Generator: Adobe Illustrator 27.0.0, SVG Export Plug-In . SVG Version: 6.00 Build 0)  -->
<svg version="1.1" id="Livello_1" xmlns="http://www.w3.org/2000/svg" xmlns:xlink="http://www.w3.org/1999/xlink" x="0px" y="0px"
	 viewBox="0 0 238.1 238.1" style="enable-background:new 0 0 238.1 238.1;" xml:space="preserve">
<style type="text/css">
	.st0{fill:#FFFFFF;}
</style>
<path class="st0" d="M214.6,238.1H23.5C10.7,238.1,0,227.5,0,214.6V23.5C0,10.7,10.7,0,23.5,0h191.1c12.9,0,23.5,10.6,23.5,23.5
	v191.1C238.1,227.5,227.5,238.1,214.6,238.1z"/>
<g>
	<path d="M503.8,167.1c22.4,0,34.6,14.4,34.6,33.2s-11.8,33.2-34.6,33.2c-22.4-0.2-34.6-14.6-34.6-33.3S481.4,167.1,503.8,167.1z
		 M503.8,180.9c-13.3,0-19.6,8.2-19.6,19.3s5.9,19.3,19.6,19.3c13.5,0,19.6-8.2,19.6-19.3C523.3,189.1,516.9,180.9,503.8,180.9z"/>
	<path d="M592.4,207.9l13.3,25.2h-16.4L578,211.4c-1.5,0.1-2.8,0.1-3.8,0.1c-2.6,0-13,0-16.1,0V233h-15.3v-64.2c0,0,30,0,34,0
		c8.4,0,27-2,27,21.4C604.2,202.2,598.7,204.7,592.4,207.9z M589,190.1c0-7.4-8.2-7.7-12.9-7.7c-2.8,0-13.9,0-18,0v15.5
		c3.3,0,16.4,0,17.8,0C580.2,198,589,197.6,589,190.1z"/>
	<path d="M503.4,237.9h-32.6v41.6c0,23.4,18.6,23.4,27,23.4h5.6c29.1,0,34.4-19.5,34.4-33C537.8,256.5,533,237.9,503.4,237.9z
		 M503.3,289c-2.4,0-2.6,0-2.7,0l0,0c0,0-0.3,0-2.5,0c-3.8,0-12.3,0-12.3-10.7v-26.6c0,0,11,0,17.4,0c15.8,0,18.8,10.3,18.8,18.2
		C522.1,277.4,518.9,289,503.3,289z"/>
	<path d="M574,263.5L574,263.5c-11.6-1.6-15.7-2.5-15.7-6.7c0-5,4.6-7.5,15.6-7.5c8.6,0,17.5,1.5,17.5,11.3c8.2,0,11.8,0,14.9,0
		c0-6.3,0-24-32.8-24c-19.5,0-30.5,4.1-30.5,20.2c0,14.6,17,16.8,32.1,19.1l0,0c11.6,1.7,15.7,2.5,15.7,6.8c0,5-4.6,7.5-15.6,7.5
		c-8.6,0-17.5-1.5-17.5-11.3c-8.2,0-11.8,0-14.9,0c0,6.3,0,24,32.8,24c19.5,0,30.5-4.1,30.5-20.2C606.1,267.9,589.2,265.8,574,263.5
		z"/>
</g>
<path d="M518.6-17.6c21.8,0,33.7,14.4,33.7,33.2s-11.5,33.2-33.7,33.2c-21.8-0.2-33.7-14.6-33.7-33.3S496.8-17.6,518.6-17.6z
	 M518.6-3.9c-13,0-19,8.2-19,19.3s5.8,19.3,19,19.3s19-8.2,19-19.3S531.4-3.9,518.6-3.9z"/>
<path d="M606.5,23.2l13.3,25.2h-16.4l-11.3-21.7c-1.5,0.1-2.8,0.1-3.8,0.1c-2.6,0-13,0-16.1,0v21.5h-15.3v-64.2c0,0,30,0,34,0
	c8.4,0,27-2,27,21.4C618.3,17.5,612.8,20,606.5,23.2z M603.1,5.4c0-7.4-8.2-7.7-12.9-7.7c-2.8,0-13.9,0-18,0v15.5
	c3.3,0,16.4,0,17.8,0C594.3,13.3,603.1,12.8,603.1,5.4z"/>
<path d="M517.3,53.2h-32.6v41.6c0,23.4,18.6,23.4,27,23.4h5.6c29.1,0,34.4-19.5,34.4-33C551.7,71.8,546.9,53.2,517.3,53.2z
	 M517.2,104.3c-2.4,0-2.6,0-2.7,0l0,0c0,0-0.3,0-2.5,0c-3.8,0-12.3,0-12.3-10.7V67c0,0,11,0,17.4,0C533,67,536,77.3,536,85.2
	C536,92.7,532.8,104.3,517.2,104.3z"/>
<path d="M618.7,97.8c0,16.1-11.1,20.2-30.5,20.2c-32.8,0-32.8-17.7-32.8-24c3.1,0,6.7,0,14.9,0c0,9.8,8.9,11.3,17.5,11.3
	c11,0,15.6-2.5,15.6-7.5c0-4.5-4.6-5.2-17.6-7c-19.8-2.9-28.9-6.9-28.9-18.6c0-9.2,7-19.7,28.7-19.7c25.9,0,31,14.1,31,24
	c0,0-10.1,0-15.3,0c0-4.5-2.1-11.2-15.8-11.2c-11.3,0-13.8,4-13.8,7c0,3.4,3.9,4.7,15.1,6.5C601.7,81,618.7,83.2,618.7,97.8z"/>
<path d="M618.7,97.8c0,16.1-11.1,20.2-30.5,20.2c-32.8,0-32.8-17.7-32.8-24c3.1,0,6.7,0,14.9,0c0,9.8,8.9,11.3,17.5,11.3
	c11,0,15.6-2.5,15.6-7.5c0-4.5-4.6-5.2-17.6-7c-19.8-2.9-28.9-6.9-28.9-18.6c0-9.2,7-19.7,28.7-19.7c25.9,0,31,14.1,31,24
	c0,0-10.1,0-15.3,0c0-4.5-2.1-11.2-15.8-11.2c-11.3,0-13.8,4-13.8,7c0,3.4,3.9,4.7,15.1,6.5C601.7,81,618.7,83.2,618.7,97.8z"/>
<text transform="matrix(1.0526 0 0 1 628.3086 369.5822)" style="font-family:'BrandcoBold'; font-size:58.8727px;">or</text>
<text transform="matrix(1.0526 0 0 1 628.3086 411.7619)" style="font-family:'BrandcoBold'; font-size:58.8727px;">ds</text>
<text transform="matrix(1.0526 0 0 1 522.0023 590.5822)" style="font-family:'RussoOne-Regular'; font-size:58.8727px;">or</text>
<text transform="matrix(1.0526 0 0 1 522.0023 632.7619)" style="font-family:'RussoOne-Regular'; font-size:58.8727px;">ds</text>
<g>
	<path d="M65.4,115.3c-8.4,0-15.3-6.5-15.3-14.5V64.6c0-8,6.8-14.5,15.3-14.5h34.4c8.4,0,15.3,6.5,15.3,14.5v36.2
		c0,8-6.8,14.5-15.3,14.5H65.4z M73.4,66.2c-2.4,0-4.4,1.9-4.4,4.2V95c0,2.3,2,4.2,4.4,4.2h18.4c2.4,0,4.4-1.9,4.4-4.2V70.5
		c0-2.3-2-4.2-4.4-4.2H73.4V66.2z"/>
	<path d="M169.1,115.3V98.4c0-2.3-2-4.2-4.4-4.2h-22.9v21.1H123V50.2h49.7c8.4,0,15.3,6.5,15.3,14.5v13.9c0,2.8-1.4,5.4-3.8,7
		l-0.9,0.6l0.9,0.6c2.4,1.6,3.8,4.2,3.8,7v21.6L169.1,115.3L169.1,115.3z M141.8,79.9h22.9c2.4,0,4.4-1.9,4.4-4.2v-5.2
		c0-2.3-2-4.2-4.4-4.2h-22.9V79.9z"/>
	<path d="M50.2,188.2v-65.1h49.7c8.4,0,15.3,6.5,15.3,14.5v36.2c0,8-6.8,14.5-15.3,14.5H50.2V188.2z M69,172.1h22.9
		c2.4,0,4.4-1.9,4.4-4.2v-24.5c0-2.3-2-4.2-4.4-4.2H69V172.1z"/>
	<path d="M138.2,188.2c-8.4,0-15.3-6.5-15.3-14.5v-6.9h18.8v1c0,2.3,2,4.2,4.4,4.2h18.4c2.4,0,4.4-1.9,4.4-4.2v-2
		c0-1.3-1-2.3-2.3-2.5l-36.9-4.2c-4-0.4-6.9-3.6-6.9-7.4v-14.4c0-8,6.8-14.5,15.3-14.5h34.4c8.4,0,15.3,6.5,15.3,14.5v6.9H169v-1
		c0-2.3-2-4.2-4.4-4.2h-18.4c-2.4,0-4.4,1.9-4.4,4.2v1.9c0,1.3,1,2.3,2.3,2.5L181,152c4,0.4,6.9,3.6,6.9,7.4v14.4
		c0,8-6.8,14.5-15.3,14.5L138.2,188.2L138.2,188.2z"/>
</g>
</svg>
