<?xml version="1.0" encoding="utf-8"?>
<!-- Generator: Adobe Illustrator 27.0.0, SVG Export Plug-In . SVG Version: 6.00 Build 0)  -->
<svg version="1.1" id="Livello_1" xmlns="http://www.w3.org/2000/svg" xmlns:xlink="http://www.w3.org/1999/xlink" x="0px" y="0px"
	 viewBox="0 0 238.1 238.1" style="enable-background:new 0 0 238.1 238.1;" xml:space="preserve">
<style type="text/css">
	.st0{fill:#FFFFFF;}
</style>
<path class="st0" d="M211.4,234.1H26.7C14.3,234.1,4,223.9,4,211.4V26.7C4,14.3,14.3,4,26.7,4h184.7c12.5,0,22.7,10.2,22.7,22.7
	v184.7C234.1,223.9,223.9,234.1,211.4,234.1z"/>
<g>
	<path d="M121.3,75.5c0,26.7-18.1,41.3-41.8,41.3s-41.8-14-41.8-41.3C37.9,48.8,56,34.2,79.7,34.2S121.3,48.8,121.3,75.5z M104,75.5
		c0-15.9-10.3-23.3-24.4-23.3s-24.4,7.1-24.4,23.3c0,16.1,10.3,23.3,24.4,23.3S104,91.2,104,75.5z"/>
	<path d="M182.7,85.6l15.5,31.2h-19.1L166,89.6c-1.7,0.1-3.2,0.1-4.4,0.1c-3,0-15.1,0-18.7,0v27h-17.8V35.5h17.6v0.1
		c4.3,0,17.2-0.1,21.9-0.1c9.7,0,31.4,0,31.4,27.2C196.3,76.6,190,81.8,182.7,85.6z M179.9,62.6c0-11.3-10.7-11.3-16.1-11.3
		c-3.2,0-16.2,0-20.9,0V74c3.8,0,19,0,20.7,0C168.5,74,179.9,74,179.9,62.6z"/>
	<path d="M120.2,163.3c0,15.7-6.1,40.6-40,40.6c-4.3,0-31.1,0-35,0v-81.3h35C114.6,122.6,120.2,147.7,120.2,163.3z M101.9,163.3
		c0-9.2-3.5-24.6-21.8-24.6c-7.4,0-17.3,0-17.3,0v49.1c3.1,0,9.2,0,17.3,0C98.2,187.8,101.9,172,101.9,163.3z"/>
	<path d="M200.3,178.6c0,20.2-13.5,25.3-37.2,25.3c-40,0-40-22.2-40-30.1c3.7,0,8.1,0,18.1,0c0,12.3,10.8,14.2,21.3,14.2
		c13.3,0,18.9-3.1,18.9-9.4c0-5.6-5.6-6.5-21.5-8.8c-24.2-3.6-35.2-8.6-35.2-23.4c0-11.5,8.5-24.7,35-24.7
		c31.6,0,37.8,17.6,37.8,30.1c0,0-12.3,0-18.6,0c0-5.7-2.6-14-19.3-14c-13.7,0-16.8,5-16.8,8.8c0,4.3,4.8,5.9,18.3,8.1
		C179.6,157.5,200.3,160.2,200.3,178.6z"/>
</g>
</svg>
