<?xml version="1.0" encoding="utf-8"?>
<svg version="1.1" id="Livello_1" xmlns="http://www.w3.org/2000/svg" xmlns:xlink="http://www.w3.org/1999/xlink" x="0px" y="0px"
	 viewBox="0 0 238.1 238.1" style="enable-background:new 0 0 238.1 238.1;" xml:space="preserve">
<style type="text/css">
	.st0{fill:#FFFFFF;}
</style>
<path class="st0" d="M214.6,238.1H23.5C10.7,238.1,0,227.5,0,214.6V23.5C0,10.7,10.7,0,23.5,0h191.1c12.9,0,23.5,10.6,23.5,23.5
	v191.1C238.1,227.5,227.5,238.1,214.6,238.1z"/>
<g>
	<path d="M121,81.6c0,23-15.6,35.6-36,35.6s-36-12.1-36-35.6C49.2,58.6,64.8,46,85.2,46S121,58.6,121,81.6z M106.1,81.6
		c0-13.7-8.9-20.1-21-20.1s-21,6.1-21,20.1c0,13.9,8.9,20.1,21,20.1S106.1,95.1,106.1,81.6z"/>
	<path d="M173.8,90.2l13.3,26.9h-16.4l-11.3-23.4c-1.5,0.1-2.8,0.1-3.8,0.1c-2.6,0-13,0-16.1,0V117h-15.3V47.1c0,0,30,0,34,0
		c8.4,0,27,0,27,23.4C185.6,82.5,180.1,87,173.8,90.2z M171.4,70.4c0-9.7-9.2-9.7-13.9-9.7c-2.8,0-13.9,0-18,0v19.5
		c3.3,0,16.4,0,17.8,0C161.6,80.3,171.4,80.3,171.4,70.4z"/>
	<path d="M120,157.1c0,13.5-5.3,35-34.4,35c-3.7,0-26.8,0-30.1,0v-70h30.1C115.2,122.1,120,143.7,120,157.1z M104.3,157.1
		c0-7.9-3-21.2-18.8-21.2c-6.4,0-14.9,0-14.9,0v42.3c2.7,0,7.9,0,14.9,0C101.1,178.2,104.3,164.6,104.3,157.1z"/>
	<path d="M189,170.3c0,17.4-11.6,21.8-32,21.8c-34.4,0-34.4-19.1-34.4-25.9c3.2,0,7,0,15.6,0c0,10.6,9.3,12.2,18.3,12.2
		c11.5,0,16.3-2.7,16.3-8.1c0-4.8-4.8-5.6-18.5-7.6c-20.8-3.1-30.3-7.4-30.3-20.1c0-9.9,7.3-21.3,30.1-21.3
		c27.2,0,32.5,15.2,32.5,25.9c0,0-10.6,0-16,0c0-4.9-2.2-12.1-16.6-12.1c-11.8,0-14.5,4.3-14.5,7.6c0,3.7,4.1,5.1,15.8,7
		C171.2,152.2,189,154.5,189,170.3z"/>
</g>
</svg>
