<?xml version="1.0" encoding="utf-8"?>
<!-- Generator: Adobe Illustrator 27.0.0, SVG Export Plug-In . SVG Version: 6.00 Build 0)  -->
<svg version="1.1" id="Livello_1" xmlns="http://www.w3.org/2000/svg" xmlns:xlink="http://www.w3.org/1999/xlink" x="0px" y="0px"
	 viewBox="0 0 238.1 238.1" style="enable-background:new 0 0 238.1 238.1;" xml:space="preserve">
<path d="M26.4,112.5c-14.5,0-26.4-11.2-26.4-25V25C0,11.2,11.7,0,26.4,0h59.3c14.5,0,26.4,11.2,26.4,25v62.4c0,13.8-11.7,25-26.4,25
	L26.4,112.5L26.4,112.5z M40.2,27.8c-4.1,0-7.6,3.3-7.6,7.2v42.4c0,4,3.5,7.2,7.6,7.2h31.7c4.1,0,7.6-3.3,7.6-7.2V35.2
	c0-4-3.5-7.2-7.6-7.2H40.2V27.8z"/>
<path d="M205.5,112.3V86.1c0-4-3.5-7.2-7.6-7.2h-39.5v33.4H126V0h85.7c14.5,0,26.4,11.2,26.4,25v27c0,4.8-2.4,9.3-6.6,12.1l-1.6,1
	l1.6,1c4.1,2.8,6.6,7.2,6.6,12.1v34.3h-32.6L205.5,112.3L205.5,112.3z M158.4,54.2h39.5c4.1,0,7.6-3.3,7.6-7.2V35
	c0-4-3.5-7.2-7.6-7.2h-39.5V54.2z"/>
<path d="M0,238V125.7h85.7c14.5,0,26.4,11.2,26.4,25v62.4c0,13.8-11.7,25-26.4,25L0,238L0,238z M32.4,210.3h39.5
	c4.1,0,7.6-3.3,7.6-7.2v-42.3c0-4-3.5-7.2-7.6-7.2H32.4V210.3z"/>
<path d="M152.4,237.9c-14.5,0-26.4-11.2-26.4-25V201h32.4v1.7c0,4,3.5,7.2,7.6,7.2h31.7c4.1,0,7.6-3.3,7.6-7.2v-1.5
	c0-2.2-1.7-4-4-4.3l-63.7-7.2c-6.9-0.7-11.9-6.2-11.9-12.8v-26.8c0-13.8,11.7-25,26.4-25h59.3c14.5,0,26.4,11.2,26.4,25V162h-32.4
	v-1.7c0-4-3.5-7.2-7.6-7.2h-31.7c-4.1,0-7.6,3.3-7.6,7.2v1.3c0,2.2,1.7,4,4,4.3l63.7,7.6c6.9,0.7,11.9,6.2,11.9,12.8v26.8
	c0,13.8-11.7,25-26.4,25h-59.3L152.4,237.9L152.4,237.9z"/>
</svg>
