
<svg version="1.1" id="Livello_1" xmlns="http://www.w3.org/2000/svg" xmlns:xlink="http://www.w3.org/1999/xlink" x="0px" y="0px"
	 viewBox="0 0 140 146.3" style="enable-background:new 0 0 140 146.3;" xml:space="preserve">
<g>
	<path d="M71.9,35.6c0,23-15.6,35.6-36,35.6c-20.4,0-36-12.1-36-35.6C0,12.6,15.6,0,36,0C56.4,0,71.9,12.6,71.9,35.6z M57,35.6
		c0-13.7-8.9-20.1-21-20.1s-21,6.1-21,20.1c0,13.9,8.9,20.1,21,20.1S57,49.1,57,35.6z"/>
	<path d="M124.8,44.3l13.4,26.9h-16.5l-11.3-23.4c-1.5,0.1-2.8,0.1-3.8,0.1c-2.6,0-13,0-16.1,0v23.3H75.2V1.1h15.2v0.1
		c3.7,0,14.8-0.1,18.9-0.1c8.4,0,27.1,0,27.1,23.4C136.5,36.6,131.1,41,124.8,44.3z M122.4,24.5c0-9.7-9.2-9.7-13.9-9.7
		c-2.8,0-14,0-18,0v19.5c3.3,0,16.4,0,17.8,0C112.6,34.3,122.4,34.3,122.4,24.5z"/>
	<path d="M70.9,111.3c0,13.5-5.3,35-34.5,35c-3.7,0-26.8,0-30.2,0V76.2h30.2C66.1,76.2,70.9,97.8,70.9,111.3z M55.2,111.3
		c0-7.9-3-21.2-18.8-21.2c-6.4,0-14.9,0-14.9,0v42.3c2.7,0,7.9,0,14.9,0C52,132.4,55.2,118.8,55.2,111.3z"/>
	<path d="M140,124.5c0,17.4-11.6,21.8-32.1,21.8c-34.5,0-34.5-19.1-34.5-25.9c3.2,0,7,0,15.6,0c0,10.6,9.3,12.2,18.4,12.2
		c11.5,0,16.3-2.7,16.3-8.1c0-4.8-4.8-5.6-18.5-7.6c-20.9-3.1-30.3-7.4-30.3-20.2c0-9.9,7.3-21.3,30.2-21.3
		c27.2,0,32.6,15.2,32.6,25.9c0,0-10.6,0-16,0c0-4.9-2.2-12.1-16.6-12.1c-11.8,0-14.5,4.3-14.5,7.6c0,3.7,4.1,5.1,15.8,7
		C122.1,106.3,140,108.6,140,124.5z"/>
</g>
</svg>
